<svg xmlns="http://www.w3.org/2000/svg" viewBox="0 0 101.17 132.52"><defs><style>.cls-1{fill:#fff;}</style></defs><g id="Layer_2" data-name="Layer 2"><g id="Layer_1-2" data-name="Layer 1"><path class="cls-1" d="M86,52.53h0a7.73,7.73,0,1,0,0-3.89H58.12l0-.14L82.21,34.57a7.71,7.71,0,1,0-1.95-3.37l-24,13.87-.14-.15,4.27-7.4a1.95,1.95,0,1,0-3.37-2l-4.23,7.34-.24-.06V15.19a7.73,7.73,0,1,0-3.89,0V42.85l-.24.06L34.57,19A7.71,7.71,0,0,0,31.15,6a7.71,7.71,0,0,0-8.68,11.31,7.63,7.63,0,0,0,4.68,3.6,7.59,7.59,0,0,0,4.05,0l13.87,24-.14.15-24-13.87A7.73,7.73,0,1,0,19,34.57L43.08,48.5l0,.14H15.19a7.73,7.73,0,1,0,0,3.89h28s0,0,0,.07L19,66.59A7.72,7.72,0,0,0,6.78,75.88,7.7,7.7,0,0,0,17.32,78.7,7.73,7.73,0,0,0,20.91,70l22.9-13.22a7,7,0,0,0-.08,1v.8L31.2,80.26a7.53,7.53,0,0,0-4.05,0,7.72,7.72,0,1,0,8.69,11.31,7.53,7.53,0,0,0,.72-1.68A58.68,58.68,0,0,1,45,105.16a21.37,21.37,0,0,0,9.1,10.71L53,130.43a2,2,0,0,0,.52,1.47,1.91,1.91,0,0,0,1.42.62H76.58a1.94,1.94,0,0,0,1.94-2.09l-1.09-14.56a21.37,21.37,0,0,0,9.53-12,1.95,1.95,0,0,0-3.72-1.14,17.52,17.52,0,0,1-8.74,10.28,2,2,0,0,0-1,1.87l1,13.71H57.07l1-13.71a2,2,0,0,0-1-1.87,17.51,17.51,0,0,1-8.39-9.27,62.25,62.25,0,0,0-9.6-17L38.45,86a2.76,2.76,0,0,1,.49-3.4,2.64,2.64,0,0,1,3.34-.45,4.37,4.37,0,0,1,1.66,1.77A1.94,1.94,0,0,0,47.6,83l0-25.25a3.05,3.05,0,0,1,1-2.26A3,3,0,0,1,51,54.74a3.14,3.14,0,0,1,2.74,3.14v24.7a1.95,1.95,0,1,0,3.89,0V74.81a3.2,3.2,0,0,1,3.19-3,3,3,0,0,1,3,3h0v7.76a1.95,1.95,0,1,0,3.89,0v-7.7s0,0,0-.07a3,3,0,0,1,6-.46l0,8.23a1.95,1.95,0,1,0,3.89,0V77.67a2.94,2.94,0,0,1,3-2.55H81A2.94,2.94,0,0,1,84,78V90a1.95,1.95,0,1,0,3.89,0V79.73a7.39,7.39,0,0,0,1.86-.26,7.72,7.72,0,1,0-7.5-12.88L58,52.6a.64.64,0,0,1,0-.07Zm7.47-5.78a3.83,3.83,0,1,1-3.83,3.83A3.84,3.84,0,0,1,93.44,46.75ZM85.79,25.83a3.8,3.8,0,0,1,1.91-.51,3.74,3.74,0,0,1,1,.13,3.83,3.83,0,1,1-2.9.38Zm-54.72-9a3.85,3.85,0,0,1-5.24-1.4,3.84,3.84,0,0,1-.38-2.91,3.86,3.86,0,0,1,3.7-2.84,3.74,3.74,0,0,1,1,.13,3.83,3.83,0,0,1,.93,7ZM16.78,31.07a3.83,3.83,0,1,1-1.4-5.24A3.8,3.8,0,0,1,16.78,31.07ZM7.72,54.41a3.83,3.83,0,1,1,3.83-3.83A3.83,3.83,0,0,1,7.72,54.41Zm7.66,20.92a3.8,3.8,0,0,1-2.91.38,3.75,3.75,0,0,1-2.32-1.78,3.83,3.83,0,1,1,5.23,1.4ZM32.47,89.62a3.83,3.83,0,0,1-6.64-3.83,3.83,3.83,0,0,1,7,.92A3.8,3.8,0,0,1,32.47,89.62Zm2.15-7.37,0,0,.31-.52C34.78,81.87,34.7,82.06,34.62,82.25Zm9.1-3.74a6.55,6.55,0,0,0-7.55,1.35A7.17,7.17,0,0,0,35.28,81l8.45-14.63Zm3-70.79a3.83,3.83,0,1,1,3.83,3.83A3.84,3.84,0,0,1,46.75,7.72Zm7.38,44a6.9,6.9,0,0,0-2.79-.9,7,7,0,0,0-4.27,1,3.83,3.83,0,1,1,7.06-.08ZM84.38,70.1A3.83,3.83,0,0,1,91,73.93a3.77,3.77,0,0,1-2.33,1.78,3.84,3.84,0,0,1-1.21.13,6.81,6.81,0,0,0-3.6-4A3.79,3.79,0,0,1,84.38,70.1ZM57.6,68.65v-2l.94,1.63A6.47,6.47,0,0,0,57.6,68.65ZM80.26,70a7.23,7.23,0,0,0-.23,1.3,6.77,6.77,0,0,0-2.86.9A6.93,6.93,0,0,0,65.78,70,7,7,0,0,0,63,68.25L57.6,58.84v-1a7.07,7.07,0,0,0-.08-1Z"/><path class="cls-1" d="M79.47,11.47A7.72,7.72,0,0,0,65.33,9.6,7.73,7.73,0,0,0,66.59,19l-2.75,4.78a1.93,1.93,0,0,0,.71,2.65,1.91,1.91,0,0,0,1,.26,2,2,0,0,0,1.69-1L70,20.91a7.84,7.84,0,0,0,2,.28,7.73,7.73,0,0,0,7.47-9.72Zm-4.14,3.91a3.84,3.84,0,0,1-5.23,1.4A3.83,3.83,0,0,1,72,9.63a3.84,3.84,0,0,1,3.69,2.84A3.8,3.8,0,0,1,75.33,15.38Z"/></g></g></svg>