<svg xmlns="http://www.w3.org/2000/svg" viewBox="0 0 116.91 113.33"><defs><style>.cls-1{fill:#fff;}.cls-2{fill:#d9dadb;}</style></defs><g id="Layer_2" data-name="Layer 2"><g id="Layer_1-2" data-name="Layer 1"><path class="cls-1" d="M80.05,96.93c4.67,0,9.35.13,14,0,7.41-.22,11-4.86,11.53-12,.47-6.78-4.71-10.1-7.52-14.72-2.17-3.56-6.26-6.38-11.23-5.35-3.47.71-6-.72-7.82-3.19-2.13-2.85-5-3.59-8.19-3.78-8-.47-14.17,4-16.12,12a4.61,4.61,0,0,1-3.15,3.81c-6.28,2.47-9,7.5-8.34,13.15C43.87,92.3,50.39,97.31,56,97c5.26-.29,10.54-.08,15.82-.1-.79,5.24-3.16,10.19-3.27,16.42ZM43.6,51.71c5.58,0,11.17-.22,16.73,0,6.22.31,10.29-2.7,13.38-7.61C75.47,41.36,75,35,72.25,33.36c-2-1.19-2.28-2.79-3.08-4.42-1.76-3.6-8.29-9.82-12.12-8.28-3.63,1.47-6.11-.07-8.07-2.6-7.15-9.24-22.19-2.88-24.27,7a5.15,5.15,0,0,1-3.42,4.18c-3.39,1.51-6.33,4-7.49,7.7A11.31,11.31,0,0,0,24.6,51.67C30.93,51.85,37.27,51.71,43.6,51.71ZM3.93,78.29,6,77.54q54.12-19.68,108.23-39.4c1-.38,3.26-.22,2.56-2.22s-2.29-.46-3.49-.25a11.12,11.12,0,0,0-1.69.62L8.47,73.84C6.78,74.45,5.06,75,3.39,75.7c-.69.27-1.42.68-.88,1.67C2.8,77.91,3.13,78.39,3.93,78.29ZM13.86,22c-.42,2.34-.22,5.23,2,5.8s4-2,5.33-3.67c1.62-2.08,2.42-4.77,3.74-7.1,1.67-3-.89-3.41-2.43-3.51C16.94,13.12,14,16.22,13.86,22ZM4.24,23.93c1.46-.5,4.14,1.12,4.34-1.57.22-2.94-2.52-2.2-4.31-2.27s-4.22-.43-4.27,2C0,24.76,2.59,23.63,4.24,23.93Zm6.6-9.52c0-1.34-4.81-4.67-6.34-4.48-1.23.15-2.19,1-1.75,2.1,1.06,2.58,3.7,3.34,6.06,4.15C9.93,16.57,10.66,15.5,10.84,14.41ZM12.18,2.35c-1.41.28-2.29,1.08-1.85,2.22.91,2.32,1.63,5,4.27,5.94a1.7,1.7,0,0,0,1.87-2.33C15.44,6,14.71,3.38,12.18,2.35ZM5.11,34.5c1.27-1.6,4.57-1.2,5.19-4.28.21-1.07-.11-2.46-1.55-2-2.35.75-5,1.45-6,4.11C2.41,33.35,3.29,34.28,5.11,34.5Zm19-30.58C22.69,3,25.81.17,22.44,0c-2.8-.14-2.21,2.24-2.23,3.93,0,1.87-.51,4.48,2.41,4.26C25.25,8,23.28,5.5,24.15,3.92Zm6.29,6a5.52,5.52,0,0,0,3.48-4.77c0-1-.47-2.22-1.33-1.82a8,8,0,0,0-4.17,5.05C28.08,9.49,28.83,10,30.44,9.92Z"/><path class="cls-1" d="M43.6,51.71c-6.33,0-12.67.14-19,0A11.31,11.31,0,0,1,13.8,37c1.16-3.71,4.1-6.19,7.49-7.7a5.15,5.15,0,0,0,3.42-4.18c2.08-9.89,17.12-16.25,24.27-7,2,2.53,4.44,4.07,8.07,2.6,3.83-1.54,10.36,4.68,12.12,8.28.8,1.63,1.13,3.23,3.08,4.42,2.71,1.64,3.22,8,1.46,10.79-3.09,4.91-7.16,7.92-13.38,7.61C54.77,51.49,49.18,51.71,43.6,51.71Z"/><path class="cls-1" d="M71.86,96.91c-5.28,0-10.56-.19-15.82.1-5.65.3-12.17-4.71-12.82-10.12-.67-5.65,2.06-10.68,8.34-13.15a4.61,4.61,0,0,0,3.15-3.81c1.95-8,8.1-12.48,16.12-12,3.17.19,6.06.93,8.19,3.78,1.85,2.47,4.35,3.9,7.82,3.19,5-1,9.06,1.79,11.23,5.35,2.81,4.62,8,7.94,7.52,14.72-.49,7.1-4.12,11.74-11.53,12-4.66.14-9.34,0-14,0l7.27-12.05H75.41c.5-6,4.47-10.39,5-16.2a37.05,37.05,0,0,1-5.38-.05c-3.79-.56-5.76.83-6.67,4.63a100.75,100.75,0,0,1-4,12.41c-2.8,7.39-2.89,7.55,4.92,7.41C72.87,93,73.06,94.27,71.86,96.91Z"/><path class="cls-2" d="M71.86,96.91c1.2-2.64,1-3.9-2.55-3.83-7.81.14-7.72,0-4.92-7.41a100.75,100.75,0,0,0,4-12.41c.91-3.8,2.88-5.19,6.67-4.63a37.05,37.05,0,0,0,5.38.05c-.56,5.81-4.53,10.18-5,16.2H87.32L80.05,96.93l-11.46,16.4C68.7,107.1,71.07,102.15,71.86,96.91Z"/><path class="cls-1" d="M3.93,78.29c-.8.1-1.13-.38-1.42-.92-.54-1,.19-1.4.88-1.67,1.67-.67,3.39-1.25,5.08-1.86L111.6,36.29a11.12,11.12,0,0,1,1.69-.62c1.2-.21,2.81-1.66,3.49.25s-1.51,1.84-2.56,2.22Q60.12,57.9,6,77.54Z"/><path class="cls-1" d="M13.86,22c.11-5.77,3.08-8.87,8.59-8.48,1.54.1,4.1.55,2.43,3.51-1.32,2.33-2.12,5-3.74,7.1-1.32,1.69-3.28,4.21-5.33,3.67S13.44,24.33,13.86,22Z"/><path class="cls-1" d="M4.24,23.93C2.59,23.63,0,24.76,0,22.05c.05-2.39,2.52-2,4.27-2s4.53-.67,4.31,2.27C8.38,25.05,5.7,23.43,4.24,23.93Z"/><path class="cls-1" d="M10.84,14.41c-.18,1.09-.91,2.16-2,1.77-2.36-.81-5-1.57-6.06-4.15-.44-1.06.52-1.95,1.75-2.1C6,9.74,10.81,13.07,10.84,14.41Z"/><path class="cls-1" d="M12.18,2.35c2.53,1,3.26,3.63,4.29,5.83a1.7,1.7,0,0,1-1.87,2.33C12,9.62,11.24,6.89,10.33,4.57,9.89,3.43,10.77,2.63,12.18,2.35Z"/><path class="cls-1" d="M5.11,34.5c-1.82-.22-2.7-1.15-2.33-2.17,1-2.66,3.62-3.36,6-4.11,1.44-.46,1.76.93,1.55,2C9.68,33.3,6.38,32.9,5.11,34.5Z"/><path class="cls-1" d="M24.15,3.92C23.28,5.5,25.25,8,22.62,8.2c-2.92.22-2.43-2.39-2.41-4.26,0-1.69-.57-4.07,2.23-3.93C25.81.17,22.69,3,24.15,3.92Z"/><path class="cls-1" d="M30.44,9.92c-1.61.1-2.36-.43-2-1.54a8,8,0,0,1,4.17-5.05c.86-.4,1.38.86,1.33,1.82A5.52,5.52,0,0,1,30.44,9.92Z"/></g></g></svg>