<svg xmlns="http://www.w3.org/2000/svg" viewBox="0 0 512 512"><defs><style>.cls-1{fill:#fff;}</style></defs><g id="Layer_2" data-name="Layer 2"><g id="Capa_1" data-name="Capa 1"><path class="cls-1" d="M74.27,166.26,64,138.08,0,158.6l10.25,28.19Z"/><path class="cls-1" d="M512,83.4,501.75,55.21l-64,20.53L448,103.92Z"/><path class="cls-1" d="M74.27,75.74l-64-20.53L0,83.4l64,20.52Z"/><path class="cls-1" d="M437.73,166.26l64,20.53L512,158.6l-64-20.52Z"/><path class="cls-1" d="M136,0h45V91H136Z"/><path class="cls-1" d="M211,0h45V91H211Z"/><path class="cls-1" d="M286,0h45V91H286Z"/><path class="cls-1" d="M361,30h45V91H361Z"/><path class="cls-1" d="M166,331H376V289.54l30-60V121H286v15a74.52,74.52,0,0,1-25.6,56A59.89,59.89,0,0,1,286,241H256a30,30,0,0,0-30-30H166V181h45a45.05,45.05,0,0,0,45-45V121H106V232.21l60,60Z"/><path class="cls-1" d="M166,361H376V512H166Z"/></g></g></svg>