<svg xmlns="http://www.w3.org/2000/svg" viewBox="0 0 99.08 99.08"><defs><style>.cls-1{fill:#fff;}</style></defs><g id="Layer_2" data-name="Layer 2"><g id="Isolation_Mode" data-name="Isolation Mode"><path id="Shape" class="cls-1" d="M80.92,11.56H72.65C69.1,4.2,64,0,58.62,0S48.09,4.25,44.54,11.68c-9.22,1.17-16.47,11.77-16.47,24.65a29.77,29.77,0,0,0,5,17.07A25.18,25.18,0,0,0,29,61.91c-.38,1.46-.66,3-.95,4.41-.33,1.75-.66,3.42-1.13,5C13.35,72.56,0,77.19,0,85.05s14.91,14,34.68,14,34.68-6,34.68-14c0-6.89-11.27-12.44-27.58-13.74.15-1.12.36-2.25.57-3.37l.14-.76a42,42,0,0,1,1.63-6.26,15,15,0,0,0,2.12.18H80.92c10,0,18.16-11.11,18.16-24.77S90.93,11.56,80.92,11.56ZM58.62,3.3c3.77,0,7.45,3,10.33,8.26H48.3C51.18,6.28,54.86,3.3,58.62,3.3ZM46.24,14.86c8.19,0,14.86,9.63,14.86,21.47S54.43,57.8,46.24,57.8c-.27,0-.53,0-.79,0l.1-.21a10.23,10.23,0,0,1,4.35-4.07A11.49,11.49,0,0,0,53,50.85a1.21,1.21,0,0,0,.16-.16c.29-.36.57-.72.84-1.11a21.94,21.94,0,0,0,3.55-9.95v0a24,24,0,0,0,.22-3.28c0-10.87-6-18.17-11.56-18.17s-11.56,7.3-11.56,18.17a24.07,24.07,0,0,0,3,12l-.55.51c-.15.14-.3.28-.44.43-.41.39-.79.78-1.16,1.18-.08.09-.18.17-.26.26a27.25,27.25,0,0,1-3.87-14.38C31.38,24.49,38,14.86,46.24,14.86Zm-6,31.38A21.19,21.19,0,0,1,38,36.33c0-9.21,4.81-14.86,8.26-14.86s8.25,5.65,8.25,14.86a20.08,20.08,0,0,1-.18,2.9c0,.34-.13.67-.18,1l-1.59.52A45.31,45.31,0,0,0,40.28,46.24ZM66.05,85.05c0,5.07-12.88,10.73-31.37,10.73S3.3,90.12,3.3,85.05c0-4,8.27-8.72,22.26-10.26-.1.19-.19.4-.3.58a7.21,7.21,0,0,1-6.92,3.91,1.58,1.58,0,0,0-1.22.35,1.6,1.6,0,0,0-.6,1.11A1.66,1.66,0,0,0,18,82.56a10.28,10.28,0,0,0,1.1.06,10.42,10.42,0,0,0,9-5.57,19,19,0,0,0,1.64-3.62h0a46.66,46.66,0,0,0,1.56-6.48c.28-1.46.54-2.84.9-4.19a22.23,22.23,0,0,1,4.2-8.31,29.65,29.65,0,0,1,4.45-4.51A37.25,37.25,0,0,1,53.17,44c0,.1-.05.21-.09.31l-.14.28a15.18,15.18,0,0,1-.89,1.92c-.16.28-.35.51-.52.77s-.5.79-.77,1.14l0,0,0,0-.09.1a8.56,8.56,0,0,1-2.34,2A13.38,13.38,0,0,0,42.62,56c-.38.73-.74,1.52-1.08,2.36a41.51,41.51,0,0,0-2.29,8.17l-.14.76a24.4,24.4,0,0,0-.36,11,8.37,8.37,0,0,0,5.32,5.85,1.65,1.65,0,1,0,1-3.13,5.21,5.21,0,0,1-3.18-3.6,11.51,11.51,0,0,1-.37-2.8C56.73,75.83,66.05,80.87,66.05,85.05ZM80.92,57.8H55.26c5.46-4.28,9.14-12.29,9.14-21.47s-3.68-17.19-9.14-21.47H70.5a52.83,52.83,0,0,1,3.66,16.87,5,5,0,1,0,3.31-.1,57.59,57.59,0,0,0-3.4-16.77h6.85c8.19,0,14.86,9.63,14.86,21.47S89.11,57.8,80.92,57.8ZM76,34.68a1.65,1.65,0,1,1-1.65,1.65A1.65,1.65,0,0,1,76,34.68Z"/></g></g></svg>