<svg xmlns="http://www.w3.org/2000/svg" viewBox="0 0 79.29 109.08"><defs><style>.cls-1{fill:#8ec641;}.cls-2{fill:#fff;}</style></defs><g id="Layer_2" data-name="Layer 2"><g id="Layer_1-2" data-name="Layer 1"><path class="cls-1" d="M76.53,25.91a4.5,4.5,0,0,1,1.09,3.39,5.91,5.91,0,0,1-.47,1.4,5.74,5.74,0,0,0,1,5.94,4.56,4.56,0,0,1,0,6.1,5.64,5.64,0,0,0-.81,6.38,4.36,4.36,0,0,1-1.63,5.1,6,6,0,0,0-3.14,6.11,4.26,4.26,0,0,1-3.29,4.36,6.09,6.09,0,0,0-4.2,3.3,11.34,11.34,0,0,0-.58,1.82,4.12,4.12,0,0,1-3.81,2.77,8,8,0,0,0-3.22.35,5.85,5.85,0,0,0-3,2.41,4.38,4.38,0,0,1-5.71,1.91,5.75,5.75,0,0,0-6.28,1.1,4.14,4.14,0,0,1-5.45.06,6,6,0,0,0-6.67-1.07,4.35,4.35,0,0,1-5.23-1.72,5.85,5.85,0,0,0-5.82-3,4.34,4.34,0,0,1-4.64-3.5,6,6,0,0,0-3.29-4,4.9,4.9,0,0,0-1.22-.37A4.24,4.24,0,0,1,6.8,60.15a6.18,6.18,0,0,0-1.66-4.81,15,15,0,0,0-2-1.5A4.11,4.11,0,0,1,2,49.22a6.1,6.1,0,0,0-1-6.75A4.26,4.26,0,0,1,1,37,6,6,0,0,0,2,30.14a4.46,4.46,0,0,1,1.15-4.53A14.32,14.32,0,0,0,5.22,24a6.49,6.49,0,0,0,1.6-4.63,4.11,4.11,0,0,1,3.23-4.6,7,7,0,0,0,1.65-.62,5.72,5.72,0,0,0,2.87-3.6A4.66,4.66,0,0,1,17.38,7a4.38,4.38,0,0,1,2-.19,6,6,0,0,0,5.75-3,4.38,4.38,0,0,1,5.17-1.75A6,6,0,0,0,37,1a4.12,4.12,0,0,1,5.24,0A6.07,6.07,0,0,0,49.2,2a4.34,4.34,0,0,1,5,1.7A5.89,5.89,0,0,0,60,6.83c2.46-.2,4.16,1.36,4.76,3.73a5.38,5.38,0,0,0,4,4,5,5,0,0,1,3.53,2.77,3.34,3.34,0,0,1,.23,1.32,16.54,16.54,0,0,0,0,2c-.17.74.71,1.47,0,2.23a.93.93,0,0,0,.15.22c.84,1.08,1.68,2.16,2.54,3.23.12.15.25.41.49.33a.52.52,0,0,0,.41-.58C76.17,25.79,76.37,25.89,76.53,25.91Zm-6.17,13.8a30.67,30.67,0,1,0-31,30.65A30.7,30.7,0,0,0,70.36,39.71Z"/><path class="cls-1" d="M38.39,81.79c-.32.91-.64,1.82-1,2.72-.83,2.31-1.66,4.61-2.51,6.92C34,94,33,96.59,32,99.18c-1.16,3.17-2.3,6.35-3.45,9.52-.05.15,0,.36-.24.38s-.22-.22-.28-.35l-3.77-8.07c-1.18-2.52-2.37-5-3.52-7.56-.25-.55-.56-.62-1.05-.39l-9.47,4.44-6,2.79c-.15.08-.33.27-.51.09s0-.3,0-.46c.83-2.27,1.67-4.54,2.5-6.82.63-1.74,1.22-3.49,1.87-5.23.8-2.16,1.55-4.35,2.4-6.49.68-1.74,1.25-3.52,1.87-5.27.35-1,.75-1.94,1.08-2.92.19-.59.43-.6.8-.17a6.36,6.36,0,0,0,3.11,1.87,5.22,5.22,0,0,0,2,.16,4,4,0,0,1,4.14,2.24A6.31,6.31,0,0,0,30,79.58c1.15-.31,2.25-.86,3.52-.62a3.58,3.58,0,0,1,1.78.78,6.26,6.26,0,0,0,2.55,1.46C38.13,81.26,38.55,81.29,38.39,81.79Z"/><path class="cls-1" d="M57.47,75.16l.14,0a7.21,7.21,0,0,1,2.88-.39,2.9,2.9,0,0,0,2.21-.44h0c.32,0,.66-.06.82-.41h0a2.42,2.42,0,0,0,1.31-.9c.63-.6.62-.6,1,.16a1.92,1.92,0,0,0,.26.32l0,.16c-.1.63-.32,1.29.46,1.71.14.07.33.37.11.54s-.3-.13-.43-.24a1.86,1.86,0,0,0-.26-.23.72.72,0,0,0-1,.13c-.23.3-.34.64.23.78.21,0,.07.29.09.44a.7.7,0,0,0,.51.61.56.56,0,0,0,.69-.21.68.68,0,0,1,.87-.25,21.61,21.61,0,0,0,1,2.93q1.84,5.2,3.76,10.39c1.06,2.91,2.15,5.82,3.21,8.74.13.35.48.83.18,1.1s-.67-.17-1-.32l-8.65-4-6.27-3c-.52-.25-.83-.2-1.1.39-1.17,2.6-2.39,5.18-3.58,7.77-.12.25-.35.45-.36.76a26.93,26.93,0,0,0-2.11,4.52l0,.15c-.38.16-.34.52-.41.84h0a1,1,0,0,0-.4.86v0c-.25.07-.24.33-.35.5s0,.31-.22.31-.24-.18-.31-.34-.09-.62-.4-.79l0-.15a5.35,5.35,0,0,0-.84-2.25v0a3.12,3.12,0,0,0-.11-.61c-.5-1.39-1-2.77-1.51-4.15-.14-.36-.1-.81-.5-1l0-.16c-.37-1.58-1.07-3-1.59-4.56-.13-.38-.08-.86-.51-1.12l0-.16a13.32,13.32,0,0,0-1.26-3.39l0-.17a4.83,4.83,0,0,0-.81-2.12l-.05-.29a17.92,17.92,0,0,0-.83-2.47c-.1-.28-.08-.63-.41-.79l0-.16A4.66,4.66,0,0,0,41,82l0-.29c0-.28.24-.28.43-.37.43-.21,1-.16,1.3-.62h0A2.2,2.2,0,0,0,43.85,80a4.19,4.19,0,0,1,2.89-1c.7,0,1.24.42,1.89.46l.16,0a4.17,4.17,0,0,0,3.26.22,3.28,3.28,0,0,0,2.14-1.06h0a3.11,3.11,0,0,0,1.69-1.71v0Zm4.06,3.74a2.13,2.13,0,0,1-.69-.77c-.07-.15-.22-.28-.4-.12s-.08.27,0,.35c.29.2.27.38,0,.54-.73.42-.56.85,0,1.32.19.17.32.41.5.6s.19.41.43.21,0-.28-.1-.41-.36-.5-.51-.76a.44.44,0,0,1,.06-.59c.24-.19.39,0,.53.18s.31.41.48.61.27.43.5.27-.1-.36-.08-.56l.16-.16a2.82,2.82,0,0,0,.55.11c.45,0,1.09-.67.9-.92-.45-.63-.93-1.24-1.41-1.86-.1-.13-.25-.27-.42-.13s0,.3.09.42.22.37-.06.51c-.46.22-.44.62-.37,1Zm4.1-1.11a4.06,4.06,0,0,1-.72-.86.81.81,0,0,0-1.18-.42c-.29.13-.47.17-.67-.08s-.23-.2-.36-.07,0,.22,0,.31l1.39,1.88a.33.33,0,0,0,.45.08c.22-.16,0-.28-.09-.4s-.34-.45-.52-.67-.24-.45,0-.64.43,0,.58.18.46.55.69.82a.21.21,0,0,0,.31,0S65.59,77.86,65.63,77.79ZM59,81.61c.16,0,.45-.2.51.11S59.2,82,59,82s-.25,0-.22.2a.3.3,0,0,0,.17.21,1,1,0,0,0,.78-.16.56.56,0,0,0,.24-.68.63.63,0,0,0-.58-.45,2.65,2.65,0,0,0-.48.07c-.18,0-.37,0-.41-.17s.14-.22.29-.24.31,0,.25-.24-.25-.21-.42-.16c-.33.11-.64.3-.58.69S58.48,81.7,59,81.61Zm1.78-.23a5.43,5.43,0,0,0-1.22-1.54c-.06,0-.17,0-.18,0a.36.36,0,0,0,0,.25c.35.45.7.88,1.06,1.31a.3.3,0,0,0,.25.07S60.72,81.41,60.74,81.38Z"/><path class="cls-1" d="M76.19,25.69l0,.13a1.29,1.29,0,0,1-.16-.09.79.79,0,0,1,0-.09Z"/><path class="cls-1" d="M66.12,76.27c.16,0,.27.12.27.27a.31.31,0,0,1-.36.33c-.15,0-.23-.13-.21-.29S65.92,76.28,66.12,76.27Z"/><path class="cls-1" d="M65.53,76.13c-.11,0-.16-.08-.16-.18a.23.23,0,0,1,.2-.24c.15,0,.23.06.21.19A.3.3,0,0,1,65.53,76.13Z"/><path class="cls-1" d="M39.71,11.71a28,28,0,1,1-28,28.1A28,28,0,0,1,39.71,11.71ZM19.62,42.61a1.69,1.69,0,0,0,.57,1.46l4.08,4.4c2.75,3,5.49,6,8.24,9a1.86,1.86,0,0,0,3-.15c1-1.13,1.83-2.34,2.77-3.49,2.5-3.06,4.92-6.19,7.37-9.3l7.25-9.14L57,30.13A2,2,0,0,0,56.65,27c-1.37-1.12-2.82-2.14-4.24-3.19a2.3,2.3,0,0,0-2.95.34c-.26.3-.52.6-.76.92L40.08,36.56Q37.5,40,34.93,43.47c-.55.74-.63.75-1.28.11q-3.16-3.15-6.32-6.31A2.2,2.2,0,0,0,24,37.22c-1.21,1.2-2.39,2.44-3.6,3.65A2.09,2.09,0,0,0,19.62,42.61Z"/><path class="cls-1" d="M63.3,78.85c0,.33-.2.5-.43.42a1,1,0,0,1-.71-.93.29.29,0,0,1,.36-.32C63,78.13,63.14,78.53,63.3,78.85Z"/><path class="cls-1" d="M62.23,79.77c-.1-.09-.26-.19-.08-.31s.19.05.24.15Z"/><path class="cls-1" d="M61.67,78.77l.12.17-.13.13-.13-.17Z"/><path class="cls-1" d="M61.79,78.94c.06,0,.15.11.07.19s-.14,0-.2-.06Z"/><polygon class="cls-1" points="71.56 88.54 66.14 73.43 65.57 72.56 64.06 74.8 59.87 76.87 56.09 80.17 56.53 84.15 59.2 85.94 65.78 85.77 71.56 88.54"/><path class="cls-2" d="M19.62,42.61a1.69,1.69,0,0,0,.57,1.46l4.08,4.4c2.75,3,5.49,6,8.24,9a1.86,1.86,0,0,0,3-.15c1-1.13,1.83-2.34,2.77-3.49,2.5-3.06,4.92-6.19,7.37-9.3l7.25-9.14L57,30.13A2,2,0,0,0,56.65,27c-1.37-1.12-2.82-2.14-4.24-3.19a2.3,2.3,0,0,0-2.95.34c-.26.3-.52.6-.76.92L40.08,36.56Q37.5,40,34.93,43.47c-.55.74-.63.75-1.28.11q-3.16-3.15-6.32-6.31A2.2,2.2,0,0,0,24,37.22c-1.21,1.2-2.39,2.44-3.6,3.65A2.09,2.09,0,0,0,19.62,42.61Z"/></g></g></svg>