<svg xmlns="http://www.w3.org/2000/svg" xmlns:xlink="http://www.w3.org/1999/xlink" viewBox="0 0 390 512"><defs><style>.cls-1{fill:url(#linear-gradient);}.cls-2{fill:url(#linear-gradient-2);}</style><linearGradient id="linear-gradient" x1="195" y1="-68.72" x2="195" y2="443.28" gradientTransform="matrix(1, 0, 0, -1, 0, 443.28)" gradientUnits="userSpaceOnUse"><stop offset="0" stop-color="#00b59c"/><stop offset="1" stop-color="#9cffac"/></linearGradient><linearGradient id="linear-gradient-2" x1="195" y1="82.28" x2="195" y2="292.28" gradientTransform="matrix(1, 0, 0, -1, 0, 443.28)" gradientUnits="userSpaceOnUse"><stop offset="0" stop-color="#c3ffe8"/><stop offset="1" stop-color="#f0fff4"/></linearGradient></defs><g id="Layer_2" data-name="Layer 2"><g id="Capa_1" data-name="Capa 1"><path class="cls-1" d="M375,81.62c-83,0-169.07-77-169.92-77.73a15,15,0,0,0-20.16,0C184.07,4.67,98.25,81.62,15,81.62a15,15,0,0,0-15,15V276.26C0,421.78,108.24,479.93,189.65,511a15,15,0,0,0,10.7,0C314.5,467.43,390,399.45,390,276.26V96.62A15,15,0,0,0,375,81.62Z"/><path class="cls-2" d="M195,151A105,105,0,1,0,300,256,105.12,105.12,0,0,0,195,151Zm40.61,100.61-45,45a15,15,0,0,1-21.22,0l-15-15a15,15,0,0,1,21.22-21.22l4.39,4.4,34.39-34.4a15,15,0,0,1,21.22,21.22Z"/></g></g></svg>