<svg xmlns="http://www.w3.org/2000/svg" viewBox="0 0 119.49 98.13"><defs><style>.cls-1{fill:#fff;}</style></defs><g id="Layer_2" data-name="Layer 2"><g id="Layer_1-2" data-name="Layer 1"><path class="cls-1" d="M47.05,34.44c-1.7-9-3.25-17.19-4.93-26.1,9.82,4.9,18.72.45,27.68-1,12.94-2,25.76-4.83,38.64-7.23,4.92-.91,9.77,2.15,10.77,6.63,1.21,5.41-1.57,10-7.25,11.08-17.24,3.41-34.51,6.74-51.81,9.88A25,25,0,0,0,47.05,34.44Zm-2.26-22c.84,4.8,1.75,9.84,2.59,14.89.32,2,.94,2.36,2.94,1.48,18.31-8.13,36.68-16.1,55-24.21,1.24-.55,3.07-.5,3.62-2.53C87.61,5,66.94,11.48,44.79,12.44Z"/><path class="cls-1" d="M51.8,98.13H8.9c-1.33,0-2.67,0-4,0C1.73,98-.14,96.55,0,93.19c.13-3.08,2-4.41,4.89-4.42q14.72,0,29.43,0l28.12,0c11.47,0,23,.05,34.42,0,3.32,0,6.22.54,6.34,4.54.13,4.42-3.1,4.87-6.51,4.87Z"/><path class="cls-1" d="M47.58,41.53c2.1,3.83,3.86,6.65,5.25,9.65,1.32,2.84.27,5.2-2.32,6.84-2.24,1.41-5.08,1.51-6.29-.58-1.49-2.59-.9-6-.23-8.92C44.49,46.36,46,44.44,47.58,41.53Z"/><path class="cls-1" d="M50.62,78.58c-.83-4.46,0-7.59.48-10.75.19-1.34.84-2.28,2.27-1.88a1.86,1.86,0,0,1,1.2,2.75C53.41,71.65,52.21,74.6,50.62,78.58Z"/><path class="cls-1" d="M35.56,81.2c-2.79-2-5.61-3.94-8.35-6-1-.75-1.54-2-.66-3s2.18-.62,3.05.38c2.27,2.59,4.48,5.22,6.72,7.84Z"/><path class="cls-1" d="M34.91,66.3C33,63.92,31,61.49,29,59.19c-1-1.17-1.49-2.6-.33-3.44s2.48.11,3.2,1.4l4.42,8Z"/><path class="cls-1" d="M61.9,70.73c0-3.73,1.34-5.93,2.28-8.24.44-1.08,1.3-2.17,2.65-1.43,1.58.86,1,2.33.25,3.39C65.67,66.38,64,68.16,61.9,70.73Z"/><path class="cls-1" d="M63.81,82c1.89-2.43,3.24-4.21,4.64-5.94.93-1.15,2-1.85,3.28-.41,1,1.17.55,2.24-.56,2.92C69.13,79.81,67.28,81.53,63.81,82Z"/></g></g></svg>