<?xml version="1.0" encoding="utf-8"?>
<!-- Generator: Adobe Illustrator 24.2.0, SVG Export Plug-In . SVG Version: 6.00 Build 0)  -->

<svg version="1.1" id="Layer_1" xmlns="http://www.w3.org/2000/svg" xmlns:xlink="http://www.w3.org/1999/xlink" x="0px" y="0px"
	 viewBox="0 0 932.52 155.61" style="enable-background:new 0 0 932.52 155.61;" xml:space="preserve">
<style type="text/css">
	.st0{fill:#FFFFFF;}
	.st1{fill:#F58220;}
	.st2{fill:#F15B22;}
	.st3{fill-rule:evenodd;clip-rule:evenodd;fill:#F15B22;}
	.st4{fill:#FEC00F;}
	.st5{fill-rule:evenodd;clip-rule:evenodd;fill:#FEC00F;}
</style>
<path class="st0" d="M341,44.94c-1.68-1.57-3.64-2.83-5.85-3.74c-2.23-0.92-4.62-1.39-7.12-1.39h-14.06c-2.5,0-4.89,0.47-7.12,1.39
	c-2.21,0.91-4.17,2.17-5.85,3.75c-1.68,1.58-3.02,3.46-3.99,5.58c-0.97,2.14-1.47,4.41-1.47,6.76v66.43c0,2.35,0.5,4.6,1.47,6.7
	c0.97,2.08,2.31,3.93,3.98,5.5c1.67,1.57,3.64,2.83,5.85,3.75c2.23,0.92,4.62,1.39,7.12,1.39h14.06c2.49,0,4.89-0.47,7.12-1.39
	c2.21-0.91,4.18-2.17,5.85-3.75c1.67-1.57,3.01-3.42,3.98-5.5c0.98-2.1,1.47-4.35,1.47-6.7V82.37h-26.97v12.9l3.87,3.33h4.66v22.44
	c0,1.12-0.39,2.03-1.2,2.79c-0.81,0.76-1.78,1.13-2.96,1.13h-5.68c-1.1,0-2.05-0.38-2.91-1.15c-0.84-0.76-1.25-1.66-1.25-2.77V59.95
	c0-1.11,0.39-1.96,1.23-2.67c0.86-0.74,1.82-1.1,2.94-1.1h5.68c1.2,0,2.18,0.35,2.99,1.08c0.79,0.71,1.18,1.59,1.18,2.7v14.16h18.44
	V57.28c0-2.34-0.49-4.62-1.47-6.76C344.02,48.4,342.68,46.52,341,44.94"/>
<path class="st0" d="M401.88,44.99c-1.61-1.56-3.5-2.82-5.62-3.76c-2.15-0.94-4.5-1.42-7-1.42h-32.73v101.24h32.73
	c2.5,0,4.85-0.48,7-1.43c2.13-0.94,4.02-2.23,5.63-3.85c1.61-1.62,2.9-3.52,3.84-5.65c0.94-2.15,1.42-4.52,1.42-7.02V57.61
	c0-2.51-0.48-4.87-1.42-7.02C404.79,48.44,403.5,46.56,401.88,44.99 M389.24,120.49c0,1.15-0.38,2.09-1.16,2.87
	c-0.78,0.78-1.67,1.16-2.71,1.16h-10.93V56.33h10.93c1.04,0,1.93,0.38,2.71,1.16c0.78,0.78,1.16,1.72,1.16,2.87V120.49z"/>
<polygon class="st0" points="510.71,91.01 502.31,39.81 479.99,39.81 479.99,141.04 494.94,141.04 494.94,95.85 502.45,141.04 
	517.23,141.04 524.47,96.28 524.47,141.04 540.73,141.04 540.73,39.81 518.53,39.81 "/>
<path class="st0" d="M594.33,85.87c2.09-1.56,3.66-3.54,4.67-5.93c1.32-3.11,1.99-6.49,1.99-10.05V57.61c0-2.51-0.48-4.87-1.42-7.02
	c-0.94-2.14-2.24-4.02-3.85-5.6c-1.61-1.56-3.5-2.82-5.61-3.76c-2.15-0.94-4.45-1.42-6.86-1.42h-31.43v101.24h32.73
	c2.5,0,4.85-0.48,7-1.43c2.13-0.94,4.02-2.23,5.63-3.85c1.61-1.62,2.9-3.52,3.84-5.65c0.94-2.15,1.42-4.52,1.42-7.02v-20.38
	c0-3.86-0.77-7.48-2.3-10.74C598.91,89.35,596.96,87.31,594.33,85.87 M569.72,56.33h9.34c1.14,0,2.08,0.38,2.85,1.16
	c0.78,0.78,1.16,1.72,1.16,2.87v13.59c0,1.15-0.38,2.08-1.16,2.86c-0.78,0.78-1.71,1.16-2.86,1.16h-9.34V56.33z M584.52,120.49
	c0,1.15-0.38,2.09-1.16,2.87c-0.78,0.78-1.67,1.16-2.71,1.16h-10.93V94.64h10.93c1.04,0,1.93,0.38,2.71,1.16
	c0.78,0.78,1.16,1.72,1.16,2.87V120.49z"/>
<path class="st0" d="M200.59,120.49c0,1.15-0.4,2.09-1.23,2.87c-0.83,0.78-1.83,1.16-3.05,1.16H167l-5.68,16.52h39.3
	c2.66,0,5.18-0.48,7.47-1.43c2.27-0.94,4.29-2.23,6.01-3.85c1.72-1.62,3.09-3.52,4.09-5.65c1.01-2.15,1.51-4.51,1.51-7.02V39.81
	h-19.1V120.49z"/>
<path class="st0" d="M626.63,39.8l-16.12,101.24h16.71l2.91-19.08h14.92l3.05,19.08h18.09L650.77,44.2l-0.7-4.39h-3.82h-14.63
	H626.63z M632.81,105.44l4.83-30.05l4.73,30.05H632.81z"/>
<path class="st0" d="M430.35,39.8l-16.12,101.24h16.71l2.91-19.08h14.92l3.05,19.08h18.09L454.49,44.2l-0.7-4.39h-3.82h-14.63
	H430.35z M436.53,105.44l4.83-30.05l4.73,30.05H436.53z"/>
<path class="st0" d="M245.91,39.8l-16.12,101.24h16.71l2.91-19.08h14.92l3.05,19.08h18.09L270.05,44.2l-0.7-4.39h-3.82H250.9H245.91
	z M252.09,105.44l4.83-30.05l4.73,30.05H252.09z"/>
<polygon class="st0" points="37.33,148.99 10.09,60.83 81.4,6.35 152.74,60.83 125.48,148.99 "/>
<polygon class="st1" points="42.25,141.03 18.05,62.71 81.4,14.31 144.78,62.71 120.56,141.03 "/>
<path class="st2" d="M79.51,46.93c-15.03,0-27.89,9.21-33.29,22.28c-0.5,1.2-0.91,2.44-1.28,3.71c-0.91,3.18-1.44,6.53-1.44,10.01
	c0,19.88,16.11,35.99,36,35.99c19.87,0,36-16.11,36-35.99C115.51,63.04,99.38,46.93,79.51,46.93"/>
<path class="st2" d="M79.58,54.34l-3.86,10.74l3.79,2.85l3.71-2.91L79.58,54.34z M77.6,65.07l1.98-6.22l1.87,6.22l-1.87,1.4
	L77.6,65.07z"/>
<polygon class="st2" points="78.43,64.86 79.62,62.88 80.58,64.86 79.62,65.79 "/>
<polygon class="st2" points="83.29,66.75 79.45,69.51 75.57,66.75 70.66,66.75 79.45,73.31 88.36,66.75 "/>
<polygon class="st2" points="83.38,73.6 82.03,80.16 86.49,76.51 108.55,64.11 "/>
<path class="st2" d="M89.97,78.38l-8.44,6.87l12.52,3.76l12.92-16.85L89.97,78.38z M91.73,79.73l0.07,0.01l1.17,1.64l-2.14,1.42
	l-1.16-1.66L91.73,79.73z M93.11,86.95l-8.6-2.55l3.28-2.36l2.53,2.99l4.77-3.5l-2.21-2.96l10.11-3.93L93.11,86.95z"/>
<polygon class="st2" points="75.64,73.6 76.99,80.16 72.53,76.51 50.47,64.11 "/>
<path class="st2" d="M52.05,72.16l12.93,16.85l12.51-3.76l-8.44-6.87L52.05,72.16z M69.34,81.15l-1.16,1.66l-2.15-1.42l1.18-1.64
	l0.07-0.01L69.34,81.15z M56.04,74.65l10.11,3.93l-2.21,2.96l4.77,3.5l2.53-2.99l3.29,2.36l-8.61,2.55L56.04,74.65z"/>
<path class="st2" d="M92.83,97.65l-4.93-4.87l-3.72,4.29l-4.67-14.13l-5.74,15.96l5.74,5.16l4.29-3.98l3.59,3.61l2.48-2.87l0.9,0.74
	l1.28-1.35l-0.78-0.69L92.83,97.65z M79.51,101.43l-4.05-3.51l4.05-11.27V101.43z M89.91,98.63l-1.02-0.72L87.85,99l1.04,0.99
	l-1.13,1.17l-2.77-2.53l3.09-3.49l2.7,2.55L89.91,98.63z"/>
<path class="st3" d="M81.6,105.81l-2.21,0.69l-2.58-0.69l-5.16,2.18l4.12,4.36h2.75l0.86-0.75l0.92,0.75h2.7l4.35-4.36L81.6,105.81z
	 M73.28,108.18h12.44v0.44H73.28V108.18z"/>
<polygon class="st4" points="88.59,104.3 94.68,128.42 85.09,105.48 "/>
<polygon class="st4" points="92.84,101.95 103.82,124.27 89.65,103.83 "/>
<polygon class="st5" points="96.51,98.76 111.88,118.32 93.78,101.26 "/>
<polygon class="st5" points="99.43,94.89 118.54,110.82 97.29,97.89 "/>
<polygon class="st4" points="101.49,90.48 123.47,102.1 100,93.87 "/>
<polygon class="st4" points="102.58,85.75 126.5,92.54 101.83,89.37 "/>
<polygon class="st4" points="102.65,80.9 127.48,82.56 102.69,84.59 "/>
<polygon class="st4" points="101.73,76.13 126.35,72.6 102.52,79.74 "/>
<polygon class="st4" points="99.83,71.66 123.18,63.09 101.35,75.02 "/>
<polygon class="st5" points="97.05,67.69 118.1,54.44 99.25,70.65 "/>
<polygon class="st5" points="93.48,64.37 111.33,47.05 96.25,66.82 "/>
<polygon class="st4" points="89.32,61.87 103.18,41.22 92.53,63.7 "/>
<polygon class="st4" points="84.73,60.29 93.98,37.21 88.25,61.41 "/>
<polygon class="st4" points="79.91,59.7 84.17,35.2 83.6,60.06 "/>
<polygon class="st4" points="75.07,60.12 74.13,35.27 78.76,59.71 "/>
<polygon class="st4" points="70.44,61.55 64.34,37.43 73.93,60.38 "/>
<polygon class="st4" points="66.18,63.91 55.21,41.58 69.37,62.03 "/>
<polygon class="st5" points="62.52,67.09 47.15,47.54 65.24,64.6 "/>
<polygon class="st5" points="59.59,70.97 40.49,55.04 61.74,67.97 "/>
<polygon class="st4" points="57.54,75.38 35.54,63.76 59.02,71.98 "/>
<polygon class="st4" points="56.45,80.1 32.52,73.32 57.19,76.49 "/>
<polygon class="st4" points="56.37,84.96 31.54,83.29 56.34,81.26 "/>
<polygon class="st4" points="57.29,89.72 32.67,93.26 56.5,86.12 "/>
<polygon class="st4" points="59.19,94.19 35.85,102.77 57.67,90.83 "/>
<polygon class="st5" points="61.98,98.17 40.93,111.41 59.78,95.2 "/>
<polygon class="st5" points="65.53,101.48 47.69,118.81 62.77,99.03 "/>
<polygon class="st4" points="69.71,103.98 55.85,124.63 66.48,102.16 "/>
<polygon class="st4" points="74.29,105.56 65.05,128.65 70.78,104.44 "/>
<polygon class="st4" points="79.11,106.15 74.86,130.65 75.44,105.79 "/>
<polygon class="st4" points="83.96,105.73 84.89,130.58 80.27,106.14 "/>
<path class="st0" d="M79.51,46.93c-15.03,0-27.89,9.21-33.29,22.28c-0.5,1.2-0.91,2.44-1.28,3.71c-0.91,3.18-1.44,6.53-1.44,10.01
	c0,19.88,16.11,35.99,36,35.99c19.87,0,36-16.11,36-35.99C115.51,63.04,99.38,46.93,79.51,46.93"/>
<path class="st4" d="M79.51,46.93v-0.7c-15.32,0.01-28.44,9.39-33.94,22.72c-0.51,1.23-0.93,2.49-1.3,3.78
	c-0.93,3.24-1.46,6.65-1.46,10.2c0,20.27,16.43,36.69,36.7,36.7c20.26-0.01,36.7-16.43,36.7-36.7c-0.01-20.26-16.44-36.69-36.7-36.7
	V46.93v0.7c9.74,0,18.56,3.94,24.96,10.33c6.38,6.39,10.34,15.21,10.34,24.95s-3.95,18.57-10.34,24.95
	c-6.39,6.39-15.22,10.33-24.96,10.33c-9.75,0-18.57-3.95-24.96-10.33c-6.39-6.38-10.34-15.2-10.34-24.95c0-3.4,0.51-6.69,1.4-9.81
	c0.36-1.25,0.77-2.46,1.25-3.64c5.3-12.82,17.9-21.85,32.64-21.84V46.93z"/>
<path class="st2" d="M79.58,54.34l-3.86,10.74l3.79,2.85l3.71-2.91L79.58,54.34z M77.6,65.07l1.98-6.22l1.87,6.22l-1.87,1.4
	L77.6,65.07z"/>
<polygon class="st2" points="78.43,64.86 79.62,62.88 80.58,64.86 79.62,65.79 "/>
<polygon class="st2" points="83.29,66.75 79.45,69.51 75.57,66.75 70.66,66.75 79.45,73.31 88.36,66.75 "/>
<polygon class="st2" points="83.38,73.6 82.03,80.16 86.49,76.51 108.55,64.11 "/>
<path class="st2" d="M89.97,77.24l-8.44,6.87l12.52,3.76l12.92-16.86L89.97,77.24z M91.73,78.59l0.07,0.01l1.17,1.64l-2.14,1.41
	L89.68,80L91.73,78.59z M93.11,85.81l-8.6-2.55l3.28-2.37l2.53,3l4.77-3.5l-2.21-2.96l10.11-3.94L93.11,85.81z"/>
<polygon class="st2" points="75.64,73.6 76.99,80.16 72.53,76.51 50.47,64.11 "/>
<path class="st2" d="M52.05,71.01l12.93,16.86l12.51-3.76l-8.44-6.87L52.05,71.01z M69.34,80l-1.16,1.65l-2.15-1.42l1.18-1.64
	l0.07-0.01L69.34,80z M56.04,73.49l10.11,3.94l-2.21,2.96l4.77,3.5l2.53-3l3.29,2.37l-8.61,2.55L56.04,73.49z"/>
<path class="st2" d="M92.83,97.65l-4.93-4.87l-3.72,4.29l-4.67-14.13l-5.74,15.96l5.74,5.16l4.29-3.98l3.59,3.61l2.48-2.87l0.9,0.74
	l1.28-1.35l-0.78-0.69L92.83,97.65z M79.51,101.43l-4.05-3.51l4.05-11.27V101.43z M89.91,98.63l-1.02-0.72L87.85,99l1.04,0.99
	l-1.13,1.17l-2.77-2.53l3.09-3.49l2.7,2.55L89.91,98.63z"/>
<path class="st3" d="M81.6,105.42l-2.21,0.7l-2.58-0.7l-5.16,2.58l4.12,3.97h2.75l0.86-0.74l0.92,0.74h2.7l4.35-3.97L81.6,105.42z
	 M73.28,107.78h12.44v0.44H73.28V107.78z"/>
<path class="st0" d="M697.59,140.99c-2.05,0-4.02-0.41-5.84-1.22c-1.84-0.82-3.48-1.94-4.87-3.34c-1.39-1.4-2.5-3.05-3.31-4.92
	c-0.8-1.84-1.21-3.82-1.21-5.89v-11.65h12.34v8.83c0,1.88,0.72,3.53,2.13,4.9c1.39,1.35,3.03,2.03,4.88,2.03h8.54
	c1.96,0,3.62-0.7,4.92-2.08c1.29-1.36,1.94-2.99,1.94-4.85V98.87c0-1.95-0.65-3.63-1.94-4.99c-1.31-1.38-2.96-2.08-4.92-2.08h-11.19
	c-2.05,0-4.02-0.41-5.84-1.22c-1.84-0.82-3.48-1.94-4.87-3.34c-1.39-1.4-2.5-3.06-3.31-4.92c-0.8-1.84-1.21-3.82-1.21-5.89v-21.1
	c0-2.07,0.41-4.08,1.21-5.98c0.81-1.9,1.92-3.58,3.31-4.98c1.39-1.4,3.03-2.53,4.87-3.34c1.82-0.81,3.79-1.22,5.84-1.22h13.84
	c2.15,0,4.16,0.41,5.98,1.22c1.83,0.81,3.44,1.93,4.78,3.33c1.35,1.41,2.44,3.09,3.25,4.99c0.8,1.89,1.21,3.9,1.21,5.98v6.01h-12.34
	v-3.18c0-1.99-0.72-3.67-2.15-4.99c-1.39-1.28-3.03-1.93-4.85-1.93h-5.59c-1.94,0-3.61,0.66-4.95,1.95
	c-1.36,1.31-2.06,2.99-2.06,4.97v13.97c0,1.98,0.69,3.66,2.06,4.97c1.34,1.3,3.01,1.95,4.95,1.95h11.19c2.05,0,4.01,0.41,5.84,1.22
	c1.84,0.81,3.48,1.94,4.87,3.34c1.39,1.4,2.51,3.06,3.31,4.92c0.8,1.84,1.21,3.87,1.21,6.04v31.06c0,2.07-0.41,4.05-1.21,5.89
	c-0.81,1.86-1.92,3.51-3.31,4.92c-1.39,1.4-3.03,2.53-4.87,3.34c-1.82,0.81-3.79,1.22-5.84,1.22H697.59z"/>
<polygon class="st0" points="750.98,140.99 750.98,51.26 734.94,51.26 734.94,39.81 779.37,39.81 779.37,51.26 763.47,51.26 
	763.47,140.99 "/>
<polygon class="st0" points="830.37,140.99 830.37,39.81 870.68,39.81 870.68,51.26 842.85,51.26 842.85,80.23 865.09,80.23 
	865.09,91.84 842.85,91.84 842.85,129.54 870.68,129.54 870.68,140.99 "/>
<polygon class="st0" points="784.71,140.99 784.71,39.81 825.03,39.81 825.03,51.26 797.2,51.26 797.2,80.23 819.43,80.23 
	819.43,91.84 797.2,91.84 797.2,129.54 825.03,129.54 825.03,140.99 "/>
<polygon class="st0" points="876.02,140.99 876.02,39.81 888.51,39.81 888.51,129.54 916.33,129.54 916.33,140.99 "/>
<path class="st0" d="M910.38,28.27c1.19-0.35,2.06-0.95,2.59-1.79c0.53-0.84,0.79-1.7,0.79-2.6c0-1.3-0.48-2.41-1.45-3.34
	c-0.97-0.93-2.33-1.4-4.08-1.4h-5.95v15.42h3.67v-6.01h0.41l3.39,6.01h4.28L910.38,28.27z M909.55,25.21
	c-0.32,0.34-0.76,0.51-1.31,0.51h-2.28v-3.71h2.28c0.55,0,0.99,0.17,1.31,0.51c0.32,0.35,0.49,0.79,0.49,1.34
	C910.03,24.42,909.87,24.86,909.55,25.21 M910.38,28.27c1.19-0.35,2.06-0.95,2.59-1.79c0.53-0.84,0.79-1.7,0.79-2.6
	c0-1.3-0.48-2.41-1.45-3.34c-0.97-0.93-2.33-1.4-4.08-1.4h-5.95v15.42h3.67v-6.01h0.41l3.39,6.01h4.28L910.38,28.27z M909.55,25.21
	c-0.32,0.34-0.76,0.51-1.31,0.51h-2.28v-3.71h2.28c0.55,0,0.99,0.17,1.31,0.51c0.32,0.35,0.49,0.79,0.49,1.34
	C910.03,24.42,909.87,24.86,909.55,25.21 M916.67,17.9c-2.35-2.36-5.41-3.54-9.19-3.54c-3.78,0-6.84,1.18-9.19,3.54
	s-3.53,5.41-3.53,9.16c0,3.74,1.17,6.8,3.53,9.18c2.35,2.37,5.41,3.55,9.19,3.55c3.78,0,6.84-1.19,9.19-3.55
	c2.35-2.37,3.53-5.43,3.53-9.18C920.19,23.31,919.02,20.26,916.67,17.9 M915.26,34.9c-1.92,1.96-4.51,2.95-7.78,2.95
	c-3.27,0-5.86-0.99-7.78-2.95c-1.91-1.97-2.87-4.59-2.87-7.86s0.96-5.87,2.87-7.82c1.91-1.94,4.51-2.92,7.78-2.92
	c3.27,0,5.86,0.98,7.78,2.92c1.91,1.95,2.87,4.56,2.87,7.82S917.16,32.93,915.26,34.9 M912.97,26.48c0.53-0.84,0.79-1.7,0.79-2.6
	c0-1.3-0.48-2.41-1.45-3.34c-0.97-0.93-2.33-1.4-4.08-1.4h-5.95v15.42h3.67v-6.01h0.41l3.39,6.01h4.28l-3.66-6.29
	C911.57,27.91,912.44,27.31,912.97,26.48 M909.55,25.21c-0.32,0.34-0.76,0.51-1.31,0.51h-2.28v-3.71h2.28
	c0.55,0,0.99,0.17,1.31,0.51c0.32,0.35,0.49,0.79,0.49,1.34C910.03,24.42,909.87,24.86,909.55,25.21 M910.38,28.27
	c1.19-0.35,2.06-0.95,2.59-1.79c0.53-0.84,0.79-1.7,0.79-2.6c0-1.3-0.48-2.41-1.45-3.34c-0.97-0.93-2.33-1.4-4.08-1.4h-5.95v15.42
	h3.67v-6.01h0.41l3.39,6.01h4.28L910.38,28.27z M909.55,25.21c-0.32,0.34-0.76,0.51-1.31,0.51h-2.28v-3.71h2.28
	c0.55,0,0.99,0.17,1.31,0.51c0.32,0.35,0.49,0.79,0.49,1.34C910.03,24.42,909.87,24.86,909.55,25.21 M910.38,28.27
	c1.19-0.35,2.06-0.95,2.59-1.79c0.53-0.84,0.79-1.7,0.79-2.6c0-1.3-0.48-2.41-1.45-3.34c-0.97-0.93-2.33-1.4-4.08-1.4h-5.95v15.42
	h3.67v-6.01h0.41l3.39,6.01h4.28L910.38,28.27z M909.55,25.21c-0.32,0.34-0.76,0.51-1.31,0.51h-2.28v-3.71h2.28
	c0.55,0,0.99,0.17,1.31,0.51c0.32,0.35,0.49,0.79,0.49,1.34C910.03,24.42,909.87,24.86,909.55,25.21"/>
</svg>
